<?xml version="1.0" encoding="UTF-8"?><svg id="Layer_1" xmlns="http://www.w3.org/2000/svg" xmlns:xlink="http://www.w3.org/1999/xlink" viewBox="0 0 870.44 304.47"><defs><style>.cls-1,.cls-2,.cls-3,.cls-4{fill:none;}.cls-5{clip-path:url(#clippath);}.cls-2{stroke:#cc1f36;}.cls-2,.cls-3{stroke-width:17.2px;}.cls-3,.cls-4{stroke:#231f20;}.cls-6{fill:#231f20;}.cls-7{clip-path:url(#clippath-1);}.cls-8{clip-path:url(#clippath-2);}.cls-4{stroke-width:.5px;}</style><clipPath id="clippath"><rect class="cls-1" width="870.44" height="304.47"/></clipPath><clipPath id="clippath-1"><rect class="cls-1" width="870.44" height="304.47"/></clipPath><clipPath id="clippath-2"><rect class="cls-1" width="870.44" height="304.47"/></clipPath></defs><g class="cls-5"><path class="cls-6" d="M838.42,77.07c11.13,0,19.8-4.17,26.66-9.31V33.08h-28.37v13.49h13.59v13.27c-2.78,2.03-6.74,3.1-11.13,3.1-11.03,0-19.48-8.67-19.48-24.09v-.86c0-13.81,8.14-23.55,18.84-23.55,7.17,0,11.56,2.78,15.52,6.42l9.21-12.1C856.4,3,849.23,0,838.74,0c-20.34,0-35,15.95-35,38.11v.96c0,23.44,14.56,38,34.68,38m-126.74-1.07h15.2V30.72l29.65,45.28h13.27V1.07h-15.2V44.75L725.91,1.07h-14.24V76Zm-52.67,0h15.52V1.07h-15.52V76Zm-95.27,0h15.2V30.72l29.65,45.28h13.27V1.07h-15.2V44.75L577.97,1.07h-14.24V76Zm-52.67,0h15.52V1.07h-15.52V76Zm-62.09,1.07c11.13,0,19.8-4.17,26.65-9.31V33.08h-28.37v13.49h13.6v13.27c-2.78,2.03-6.74,3.1-11.13,3.1-11.03,0-19.48-8.67-19.48-24.09v-.86c0-13.81,8.14-23.55,18.84-23.55,7.17,0,11.56,2.78,15.52,6.42l9.21-12.1C466.96,3,459.79,0,449.3,0,428.96,0,414.29,15.95,414.29,38.11v.96c0,23.44,14.56,38,34.68,38m-101.91-31.04l8.24-24.41,8.14,24.41h-16.38Zm-25.8,29.97h15.63l5.46-16.27h25.8l5.57,16.27h16.06L362.91,.64h-14.77l-26.87,75.36Zm-96.77,0h15.09V28.37l17.56,30.72h.32l17.66-30.94v47.85h15.2V1.07h-16.38l-16.49,30.4L240.77,1.07h-16.27V76Zm-52.67,0h15.52V1.07h-15.52V76Zm-83.07,0h48.71v-14.02h-33.29v-16.7h28.9v-14.02h-28.9V15.09h32.86V1.07h-48.28V76ZM15.54,37.68V15.09h11.13c7.92,0,12.52,3.75,12.52,11.24v.11c0,6.74-4.28,11.24-12.2,11.24H15.54ZM.02,76H15.54v-24.62h9.74l13.81,24.62h17.77l-15.95-27.83c8.24-3.64,13.92-10.81,13.92-22.16v-.43c0-7.39-2.25-13.27-6.31-17.34C43.8,3.53,36.85,1.07,28.18,1.07H.02V76Z"/></g><path class="cls-6" d="M161.61,98.61v92.4h60.06v-17.29h-41.05v-20.59h35.64v-17.29h-35.64v-19.93h40.52v-17.29h-59.53Zm354.55,0v53.86l-35.38-53.86h-17.56v92.4h18.74v-55.84l36.56,55.84h16.37V98.61h-18.74Zm229.94,0l-20.33,37.49-20.59-37.49h-20.07v92.4h18.61v-58.74l21.65,37.88h.4l21.78-38.15v59h18.74V98.61h-20.2Zm103.22,0l-18.35,36.3-18.22-36.3h-21.65l30.1,55.97v36.43h19.14v-36.7l30.1-55.7h-21.12Z"/><g class="cls-7"><path class="cls-3" d="M263.44,172.61c-15.35-15.35-15.35-40.23,0-55.58,15.35-15.35,40.23-15.35,55.58,0"/><path class="cls-2" d="M319.01,172.61c-15.35,15.35-40.23,15.35-55.58,0"/></g><path class="cls-6" d="M.25,123.18v7.85H10.56v33.15h8.43v-33.15h10.31v-7.85H.25Zm66.12,0v16.46h-13.47v-16.46h-8.49v41h8.49v-16.69h13.47v16.69h8.49v-41h-8.49Zm28.41,0v41h26.65v-7.67h-18.21v-9.14h15.81v-7.67h-15.81v-8.84h17.98v-7.67h-26.41Z"/><g class="cls-8"><path class="cls-6" d="M854.2,304.09h3.74v-8.96l7.52-13.44h-4.13l-5.22,9.7-5.22-9.7h-4.22l7.52,13.47v8.93Zm-20.83,.32c3.33,0,5.44-1.28,7.39-3.23l-2.24-2.66c-1.57,1.54-3.01,2.43-4.99,2.43-3.42,0-6.08-3.17-6.08-8.03v-.1c0-4.8,2.59-8,6.05-8,2.02,0,3.52,.93,4.93,2.3l2.24-2.85c-1.73-1.73-3.81-2.91-7.04-2.91-5.79,0-10.02,4.64-10.02,11.42v.22c0,6.85,4.03,11.39,9.76,11.39m-22.43-.32h3.74v-22.4h-3.74v22.4Zm-21.63,0h13.31v-3.42h-9.6v-18.98h-3.71v22.4Zm-18.66-3.07c-3.52,0-6.11-3.2-6.11-8.03v-.22c0-4.83,2.53-8,6.08-8s6.08,3.2,6.08,8.03v.22c0,4.83-2.53,8-6.05,8m-.03,3.46c5.82,0,9.92-4.8,9.92-11.46v-.32c0-6.66-4.03-11.39-9.89-11.39s-9.95,4.77-9.95,11.46v.32c0,6.66,4.06,11.39,9.92,11.39m-28.7-11.01v-8.42h3.23c2.85,0,4.54,1.47,4.54,4.19v.03c0,2.5-1.7,4.19-4.54,4.19h-3.23Zm-3.71,10.62h3.71v-7.26h3.23c4.64-.06,8.29-2.66,8.29-7.65v-.06c0-4.61-3.17-7.42-8.06-7.42h-7.17v22.4Zm-33.5,0h13.31v-3.42h-9.6v-18.98h-3.71v22.4Zm-21.22-8.58l3.2-8.99,3.17,8.99h-6.37Zm-6.75,8.58h3.74l1.86-5.28h8.7l1.86,5.28h3.87l-8.22-22.53h-3.58l-8.22,22.53Zm-11.84,0h3.74v-22.4h-3.74v22.4Zm-15.71,.32c3.33,0,5.44-1.28,7.39-3.23l-2.24-2.66c-1.57,1.54-3.01,2.43-4.99,2.43-3.42,0-6.08-3.17-6.08-8.03v-.1c0-4.8,2.59-8,6.05-8,2.02,0,3.52,.93,4.93,2.3l2.24-2.85c-1.73-1.73-3.81-2.91-7.04-2.91-5.79,0-10.02,4.64-10.02,11.42v.22c0,6.85,4.03,11.39,9.76,11.39m-27.58-3.39c-3.52,0-6.11-3.2-6.11-8.03v-.22c0-4.83,2.53-8,6.08-8s6.08,3.2,6.08,8.03v.22c0,4.83-2.53,8-6.05,8m-.03,3.46c5.82,0,9.92-4.8,9.92-11.46v-.32c0-6.66-4.03-11.39-9.89-11.39s-9.95,4.77-9.95,11.46v.32c0,6.66,4.06,11.39,9.92,11.39m-24.86-.1c4.19,0,7.26-2.53,7.26-6.46v-.06c0-3.26-1.92-4.99-6.08-6.59-3.81-1.47-4.64-2.3-4.64-3.87v-.03c0-1.47,1.25-2.59,3.26-2.59,1.79,0,3.49,.86,5.02,2.14l2.11-2.85c-2.05-1.82-4.42-2.66-7.04-2.66-4.16,0-7.07,2.59-7.07,6.27v.06c0,3.58,2.18,5.15,6.43,6.75,3.55,1.31,4.32,2.21,4.32,3.65v.03c0,1.63-1.41,2.85-3.55,2.85-2.37,0-4.22-1.15-5.89-2.66l-2.24,2.78c2.43,2.27,5.22,3.23,8.1,3.23m-39.55-11.52v-7.81h4.03c2.82,0,4.45,1.34,4.45,3.87v.03c0,2.37-1.6,3.9-4.48,3.9h-4Zm-3.71,11.23h3.71v-7.9h3.81l4.74,7.9h4.32l-5.28-8.67c2.72-.96,4.64-3.1,4.64-6.56v-.1c0-2.08-.67-3.78-1.86-4.96-1.34-1.34-3.42-2.11-5.98-2.11h-8.1v22.4Zm-18.66-3.07c-3.52,0-6.11-3.2-6.11-8.03v-.22c0-4.83,2.53-8,6.08-8s6.08,3.2,6.08,8.03v.22c0,4.83-2.53,8-6.05,8m-.03,3.46c5.82,0,9.92-4.8,9.92-11.46v-.32c0-6.66-4.03-11.39-9.89-11.39s-9.95,4.77-9.95,11.46v.32c0,6.66,4.06,11.39,9.92,11.39m-31.3-.38h3.71v-9.28h9.15v-3.42h-9.15v-6.27h10.34v-3.42h-14.05v22.4Zm-33.06-11.23v-7.81h4.03c2.82,0,4.45,1.34,4.45,3.87v.03c0,2.37-1.6,3.9-4.48,3.9h-4Zm-3.71,11.23h3.71v-7.9h3.81l4.74,7.9h4.32l-5.28-8.67c2.72-.96,4.64-3.1,4.64-6.56v-.1c0-2.08-.67-3.78-1.86-4.96-1.34-1.34-3.42-2.11-5.98-2.11h-8.1v22.4Zm-22.91,0h14.24v-3.39h-10.53v-6.21h9.22v-3.36h-9.22v-6.08h10.4v-3.36h-14.11v22.4Zm-17.79,0h3.71v-18.94h5.92v-3.46h-15.52v3.46h5.89v18.94Zm-31.01,0h3.65v-15.39l10.14,15.39h3.17v-22.4h-3.65v14.91l-9.89-14.91h-3.42v22.4Zm-22.91,0h14.24v-3.39h-10.53v-6.21h9.22v-3.36h-9.22v-6.08h10.4v-3.36h-14.11v22.4Zm-15.55,.32c3.33,0,5.44-1.28,7.39-3.23l-2.24-2.66c-1.57,1.54-3.01,2.43-4.99,2.43-3.42,0-6.08-3.17-6.08-8.03v-.1c0-4.8,2.59-8,6.05-8,2.02,0,3.52,.93,4.93,2.3l2.24-2.85c-1.73-1.73-3.81-2.91-7.04-2.91-5.79,0-10.02,4.64-10.02,11.42v.22c0,6.85,4.03,11.39,9.76,11.39m-41.98-11.55v-7.81h4.03c2.82,0,4.45,1.34,4.45,3.87v.03c0,2.37-1.6,3.9-4.48,3.9h-4Zm-3.71,11.23h3.71v-7.9h3.81l4.74,7.9h4.32l-5.28-8.67c2.72-.96,4.64-3.1,4.64-6.56v-.1c0-2.08-.67-3.78-1.86-4.96-1.34-1.34-3.42-2.11-5.98-2.11h-8.1v22.4Zm-22.91,0h14.24v-3.39h-10.53v-6.21h9.22v-3.36h-9.22v-6.08h10.4v-3.36h-14.11v22.4Zm-26.53,0h3.65v-15.39l10.14,15.39h3.17v-22.4h-3.65v14.91l-9.89-14.91h-3.42v22.4Zm-22.91,0h14.24v-3.39h-10.53v-6.21h9.22v-3.36h-9.22v-6.08h10.4v-3.36h-14.11v22.4Zm-13.5,0h3.74v-22.4h-3.74v22.4Zm-30.62,.13h3.36l4.54-15.81,4.58,15.81h3.39l6.53-22.53h-3.87l-4.35,16.26-4.61-16.32h-3.2l-4.58,16.32-4.38-16.26h-3.94l6.53,22.53Zm-45.89-.13h3.62v-15.81l5.92,10.34h.1l5.95-10.37v15.84h3.68v-22.4h-3.94l-5.7,10.27-5.76-10.27h-3.87v22.4Zm-21.47,0h13.31v-3.42h-9.6v-18.98h-3.71v22.4Zm-18.66-3.07c-3.52,0-6.11-3.2-6.11-8.03v-.22c0-4.83,2.53-8,6.08-8s6.08,3.2,6.08,8.03v.22c0,4.83-2.53,8-6.05,8m-.03,3.46c5.82,0,9.92-4.8,9.92-11.46v-.32c0-6.66-4.03-11.39-9.89-11.39s-9.95,4.77-9.95,11.46v.32c0,6.66,4.06,11.39,9.92,11.39m-23.97-.06c3.33,0,5.44-1.28,7.39-3.23l-2.24-2.66c-1.57,1.54-3.01,2.43-4.99,2.43-3.42,0-6.08-3.17-6.08-8.03v-.1c0-4.8,2.59-8,6.05-8,2.02,0,3.52,.93,4.93,2.3l2.24-2.85c-1.73-1.73-3.81-2.91-7.04-2.91-5.79,0-10.02,4.64-10.02,11.42v.22c0,6.85,4.03,11.39,9.76,11.39m-29.18-.32h13.31v-3.42h-9.6v-18.98h-3.71v22.4Zm-21.22-8.58l3.2-8.99,3.17,8.99h-6.37Zm-6.75,8.58h3.74l1.86-5.28h8.7l1.86,5.28h3.87l-8.22-22.53h-3.58l-8.22,22.53Zm-27.17,0H3.62v-15.81l5.92,10.34h.1l5.95-10.37v15.84h3.68v-22.4h-3.94l-5.7,10.27-5.76-10.27H0v22.4Z"/><line class="cls-4" x1=".02" y1="240.41" x2="865.26" y2="240.41"/><path class="cls-3" d="M388.75,105.53c-21.7,0-39.3,17.59-39.3,39.3s17.59,39.3,39.3,39.3,39.3-17.59,39.3-39.3"/><path class="cls-2" d="M428.04,144.83c0-21.7-17.59-39.3-39.3-39.3"/><path class="cls-3" d="M609.95,184.39c21.7,0,39.3-17.59,39.3-39.3s-17.59-39.3-39.3-39.3-39.3,17.6-39.3,39.3"/><path class="cls-2" d="M570.65,145.1c0,21.7,17.59,39.3,39.3,39.3"/></g></svg>